<?xml version="1.0" standalone="no"?>
<!DOCTYPE svg PUBLIC "-//W3C//DTD SVG 20010904//EN"
 "http://www.w3.org/TR/2001/REC-SVG-20010904/DTD/svg10.dtd">
<svg version="1.0" xmlns="http://www.w3.org/2000/svg"
 width="374.000000pt" height="373.000000pt" viewBox="0 0 374.000000 373.000000"
 preserveAspectRatio="xMidYMid meet">

<g transform="translate(0.000000,373.000000) scale(0.100000,-0.100000)"
fill="#000000" stroke="none">
<path d="M1218 2533 c-365 -229 -756 -474 -871 -545 -114 -71 -207 -132 -207
-136 0 -4 291 -189 647 -412 356 -223 746 -467 867 -542 121 -76 223 -138 227
-138 4 0 238 145 521 322 282 176 671 420 863 540 193 121 353 223 357 226 3
4 -132 93 -300 198 -169 105 -562 351 -874 547 l-567 356 -663 -416z m900 238
c302 -189 974 -610 1159 -726 120 -76 139 -91 125 -101 -13 -9 -23 -7 -52 11
-19 12 -134 84 -255 160 -642 403 -963 605 -1080 680 -106 68 -133 81 -149 73
-10 -6 -280 -175 -600 -376 -951 -598 -889 -561 -908 -549 -19 13 -53 -10 494
332 193 121 502 315 687 432 185 116 337 212 339 212 1 1 109 -66 240 -148z
m73 -144 c162 -101 443 -278 624 -392 182 -114 374 -235 427 -268 l97 -61 -41
-27 -41 -28 36 -21 c20 -12 37 -26 37 -30 0 -4 -118 -82 -262 -173 -261 -163
-507 -318 -955 -600 l-232 -146 -378 238 c-208 130 -520 326 -693 436 -173
109 -330 207 -348 217 -17 11 -32 23 -32 26 0 4 17 18 36 30 l37 24 -41 27
-40 26 726 457 c400 252 732 456 738 454 6 -2 143 -87 305 -189z m-1066 -1327
c411 -258 751 -470 756 -470 5 0 147 87 316 194 169 106 505 318 746 469 393
248 467 288 467 257 0 -9 -1514 -960 -1529 -960 -5 0 -90 50 -188 111 -868
543 -1330 833 -1338 841 -8 7 7 26 21 28 1 0 338 -211 749 -470z"/>
<path d="M1510 1964 l0 -77 70 6 c56 5 70 3 70 -8 0 -11 -20 -15 -82 -17 -77
-3 -83 -5 -86 -25 l-3 -23 191 0 191 0 -3 23 c-3 20 -9 22 -85 25 -101 3 -111
22 -13 22 68 0 70 1 70 25 0 24 -3 25 -55 25 -52 0 -55 1 -55 25 0 24 3 25 55
25 52 0 55 1 55 25 0 25 -1 25 -80 25 l-80 0 0 -44 0 -43 -46 -7 c-70 -9 -74
-8 -74 19 0 23 3 25 50 25 47 0 50 2 50 25 0 24 -2 25 -70 25 l-70 0 0 -76z"/>
<path d="M2210 1845 l0 -195 25 0 25 0 0 195 0 195 -25 0 -25 0 0 -195z"/>
<path d="M1080 2004 l0 -26 125 3 c138 4 135 6 116 -61 -7 -25 -8 -25 -141
-30 -131 -5 -135 -6 -138 -27 l-3 -23 191 0 191 0 -3 23 c-2 14 -11 23 -26 25
-24 4 -24 7 -8 127 0 6 -57 11 -151 13 l-153 3 0 -27z"/>
<path d="M2407 2004 c-4 -4 -7 -45 -7 -91 l0 -83 150 0 c143 0 150 1 150 20 0
18 -8 20 -122 22 l-123 3 -3 43 -3 42 126 0 c125 0 126 0 123 23 -3 21 -6 22
-144 25 -77 1 -143 -1 -147 -4z"/>
<path d="M1932 1978 c2 -19 10 -24 46 -26 36 -3 42 -6 42 -25 -1 -38 -35 -101
-74 -135 -21 -18 -37 -35 -35 -36 2 -2 13 -8 25 -14 18 -10 26 -6 56 26 20 20
40 45 45 55 8 16 12 14 35 -20 32 -49 71 -71 93 -53 14 12 11 18 -26 53 -42
41 -69 90 -69 127 0 17 6 20 45 20 41 0 45 2 45 25 l0 25 -116 0 c-114 0 -115
0 -112 -22z"/>
<path d="M1080 1738 l0 -83 150 0 150 0 0 83 c0 81 0 82 -25 82 -20 0 -25 -5
-25 -25 l0 -25 -100 0 -100 0 0 25 c0 20 -5 25 -25 25 -25 0 -25 -1 -25 -82z
m250 -18 c0 -6 -40 -10 -100 -10 -60 0 -100 4 -100 10 0 6 40 10 100 10 60 0
100 -4 100 -10z"/>
<path d="M2520 1780 l0 -40 -80 0 c-73 0 -80 -2 -80 -20 0 -19 7 -20 185 -20
178 0 185 1 185 20 0 18 -7 20 -80 20 l-80 0 0 40 c0 36 -2 40 -25 40 -22 0
-25 -4 -25 -40z"/>
<path d="M1563 1785 c-67 -29 -49 -104 29 -126 47 -12 156 -6 188 11 49 26 50
89 0 115 -37 19 -173 20 -217 0z m200 -44 c23 -23 -21 -41 -98 -41 -66 0 -95
10 -95 32 0 28 167 35 193 9z"/>
<path d="M1960 1455 c-20 -25 -8 -50 25 -50 21 0 31 5 33 18 4 21 -14 47 -33
47 -7 0 -18 -7 -25 -15z"/>
<path d="M1805 1443 c-29 -7 -41 -21 -28 -34 7 -7 22 -8 46 -1 27 8 40 7 54
-4 17 -12 16 -15 -14 -44 -38 -36 -40 -48 -13 -83 11 -14 20 -28 20 -31 0 -3
-25 -6 -55 -6 -48 0 -55 -2 -55 -20 0 -18 7 -20 63 -20 50 0 68 4 81 19 16 18
16 21 0 52 -16 32 -16 33 6 51 27 22 40 23 40 3 0 -20 35 -37 73 -33 47 4 43
32 -5 36 -29 2 -38 8 -38 22 0 10 -21 37 -47 59 -48 40 -73 47 -128 34z"/>
<path d="M1710 1370 c0 -6 26 -10 59 -10 33 0 63 5 66 10 4 6 -18 10 -59 10
-37 0 -66 -4 -66 -10z"/>
<path d="M1733 1333 c15 -2 39 -2 55 0 15 2 2 4 -28 4 -30 0 -43 -2 -27 -4z"/>
<path d="M1710 1300 c0 -5 20 -10 45 -10 25 0 45 5 45 10 0 6 -20 10 -45 10
-25 0 -45 -4 -45 -10z"/>
<path d="M1806 1161 c-24 -25 -25 -29 -10 -35 17 -6 74 37 74 56 0 18 -38 6
-64 -21z"/>
</g>
</svg>
