<svg width="221" height="221" viewBox="0 0 221 221" fill="none" xmlns="http://www.w3.org/2000/svg">
<circle cx="110.5" cy="110.5" r="110.5" fill="#BFFACC"/>
<path d="M67.8045 73.4425C63.444 81.6184 74.5716 56.1548 78.8214 47.9208C81.0882 43.5289 82.3254 38.4639 84.8559 34.2464C85.9617 32.4034 87.4253 41.4597 87.6793 42.7721C88.6316 47.6921 89.4424 51.7428 91.1671 56.4465C93.4033 62.5452 95.5284 69.7128 98.8624 75.2694C103.003 82.1701 118.215 81.9749 124.938 83.1862C136.884 85.3387 148.831 87.457 160.757 89.7188C165.103 90.5431 169.902 91.8845 174.265 92.3208C179.672 92.8615 187.349 76.7896 190.264 73.1103C192.247 70.6091 197.532 60.9409 198.79 68.8475C200.286 78.2519 198.024 86.9266 197.406 96.1962C196.488 109.97 201.007 120.523 205.71 133.067C209.358 142.794 207.395 150.096 201.392 159.475C196.062 167.803 185.385 170.377 177.421 175.585C173.875 177.903 170.061 181.91 165.795 182.837C159.863 184.127 153.891 185.411 147.857 186.491C139.267 188.028 131.194 189.499 122.391 188.816C114.269 188.186 106.375 185.199 98.2534 185.052C83.8398 184.79 69.8808 180.431 61.8254 168.111C57.5612 161.589 51.0789 155.562 48.0957 148.402C44.8638 140.646 40.8987 131.74 40.8987 123.379C40.8987 118.237 41.6212 113.389 41.8952 108.32C42.0841 104.826 44.5873 102.293 45.8812 99.1303C48.2411 93.3617 49.7723 89.3223 54.0748 85.1792C58.8861 80.5461 64.7927 76.8718 70.794 73.4425" stroke="black" stroke-width="3" stroke-linecap="round"/>
<path d="M98.6963 112.306C90.3105 105.686 86.5218 123.994 92.7726 123.213C101.478 122.124 97.357 114.284 94.7102 110.313" stroke="black" stroke-width="3" stroke-linecap="round"/>
<path d="M151.511 118.285C153.258 116.248 148.522 123.076 148.522 125.759C148.522 130.021 148.487 131.24 152.951 131.24C155.995 131.24 155.497 128.571 155.497 126.258C155.497 122.631 152.339 122.018 150.515 119.282" stroke="black" stroke-width="3" stroke-linecap="round"/>
<path d="M53.8534 132.237C39.2532 132.237 26.4279 126.258 12 126.258" stroke="black" stroke-width="3" stroke-linecap="round"/>
<path d="M59.8325 139.212C45.0425 142.17 31.5424 146.564 18.6987 154.547C17.5068 155.288 13.6634 157.259 16.9825 156.153" stroke="black" stroke-width="3" stroke-linecap="round"/>
<path d="M171.442 148.181C181.015 152.666 190.265 156.633 200.119 159.917C202.665 160.766 203.786 163.073 205.323 165.121" stroke="black" stroke-width="3" stroke-linecap="round"/>
<path d="M167.456 165.121C171.546 169.121 186.072 179.344 184.396 186.048" stroke="black" stroke-width="3" stroke-linecap="round"/>
<path d="M106.668 133.233C107.891 133.233 125.316 133.148 119.623 136.444C115.241 138.981 108.661 144.577 108.661 135.226" stroke="black" stroke-width="3" stroke-linecap="round"/>
<path d="M86.7382 147.184C86.7382 151.249 89.6652 155.685 90.7796 159.585C91.4333 161.873 100.965 159.609 102.682 158.699C106.655 156.596 109.658 152.582 109.658 148.236C109.658 147.149 109.297 145.185 109.879 144.195C110.32 143.445 113.413 141.454 112.647 143.087C109.645 149.492 111.852 162.132 120.398 162.132C129.178 162.132 132.381 160.133 135.567 152.167" stroke="black" stroke-width="3" stroke-linecap="round"/>
<path d="M93.9176 112.784C94.1249 112.602 92.8616 114.499 92.4899 114.925C91.8469 115.663 91.5382 117.045 91.5382 118.031C91.5382 118.761 91.2209 120.255 91.7232 120.874C92.3326 121.623 94.3134 120.11 94.7371 119.565C95.1645 119.015 95.1298 118.505 95.5699 117.992C95.9385 117.562 96.2534 116.195 96.0061 115.639C95.3723 114.213 93.9963 116.569 93.4549 117.291C92.7756 118.197 93.2932 119.312 92.7279 120.16" stroke="black" stroke-width="3" stroke-linecap="round"/>
<path d="M151.023 122.777C152.126 124.294 150.547 127.088 150.547 128.778C150.547 129.274 150.429 129.97 150.6 130.444C150.901 131.281 153.021 130.979 153.587 130.523C154.656 129.663 154.184 126.486 153.693 125.394C153.257 124.425 153.21 123.704 152.636 125.341C152.136 126.766 151.499 128.383 151.499 129.915" stroke="black" stroke-width="3" stroke-linecap="round"/>
</svg>
